<svg xmlns="http://www.w3.org/2000/svg" width="87.179" height="94.444" viewBox="0 0 87.179 94.444"><defs><style>.a{fill:#fff;}</style></defs><path class="a" d="M81.94,50.6a16.808,16.808,0,0,0-7.288-32.057,17.1,17.1,0,0,0-9.671,2.974l.136-1.271a17.028,17.028,0,0,0-34.054,0l.136,1.271A17.072,17.072,0,0,0,4.5,35.409,16.818,16.818,0,0,0,14.24,50.6a16.808,16.808,0,0,0,7.288,32.057A17.1,17.1,0,0,0,31.2,79.68l-.136,1.271a17.028,17.028,0,0,0,34.054,0l-.136-1.271A16.9,16.9,0,1,0,81.94,50.6ZM48.09,67.466A16.869,16.869,0,1,1,65.117,50.6,16.956,16.956,0,0,1,48.09,67.466Z" transform="translate(-4.5 -3.375)"/></svg>