<svg xmlns="http://www.w3.org/2000/svg" width="95.483" height="61.382" viewBox="0 0 95.483 61.382"><defs><style>.a{fill:#fff;}</style></defs><path class="a" d="M67.352,33.451A12.944,12.944,0,0,0,80.372,20.663a13.023,13.023,0,0,0-26.041,0A12.944,12.944,0,0,0,67.352,33.451Zm-34.721,0a12.944,12.944,0,0,0,13.02-12.788,13.023,13.023,0,0,0-26.041,0A12.944,12.944,0,0,0,32.631,33.451Zm0,9.378c-10.2,0-30.381,4.9-30.381,14.919V69.257H63.632V57.748C63.632,47.73,42.83,42.829,32.631,42.829Zm34.721,2.345a23.162,23.162,0,0,0-3.72.212c4.993,3.624,6.82,5.968,6.82,12.362V69.257H97.733V57.748C97.733,47.73,77.552,45.174,67.352,45.174Z" transform="translate(-2.25 -7.875)"/></svg>