<svg xmlns="http://www.w3.org/2000/svg" width="104.889" height="25" viewBox="0 0 104.889 25"><defs><style>.a{fill:#6026eb;}.b{fill:#fff;}</style></defs><g transform="translate(-199 -14)"><path class="a" d="M3.034-14.365H5.7l3.33,10.02,3.36-10.02h2.663L17.461,0H14.817l-1.54-9.072L10.225,0H7.815L4.79-9.072,3.213,0H.547Zm16.614,0H27.49v2.676H22.363v2.6H27.49v2.627H22.363v3.779H27.49V0H19.648Zm11.784,0H34.1l3.33,10.02,3.36-10.02H43.45L45.859,0H43.215l-1.54-9.072L38.623,0h-2.41L33.188-9.072,31.611,0H28.945Zm16.614,0h7.842v2.676H50.762v2.6h5.127v2.627H50.762v3.779h5.127V0H48.047Z" transform="translate(248 34)"/><rect class="a" width="45" height="25" rx="12.5" transform="translate(199 14)"/><path class="b" d="M14.844-11.841l-1.912,1.823A5.921,5.921,0,0,0,8.541-12.08a4.718,4.718,0,0,0-3.469,1.408A4.712,4.712,0,0,0,3.662-7.2a5.13,5.13,0,0,0,.624,2.551A4.476,4.476,0,0,0,6.053-2.9a5.127,5.127,0,0,0,2.537.635,5.228,5.228,0,0,0,2.176-.445,7.8,7.8,0,0,0,2.166-1.618l1.854,1.934A10.177,10.177,0,0,1,11.777-.239a8.209,8.209,0,0,1-3.232.6A7.441,7.441,0,0,1,3.062-1.763,7.353,7.353,0,0,1,.928-7.207,7.452,7.452,0,0,1,1.9-11.025a7.225,7.225,0,0,1,2.783-2.686,7.849,7.849,0,0,1,3.9-1.016,8.157,8.157,0,0,1,3.423.751A8.185,8.185,0,0,1,14.844-11.841Zm9.175-2.886a7.134,7.134,0,0,1,5.243,2.207,7.344,7.344,0,0,1,2.194,5.381,7.262,7.262,0,0,1-2.165,5.322A7.13,7.13,0,0,1,24.038.361a7.127,7.127,0,0,1-5.375-2.236,7.422,7.422,0,0,1-2.14-5.312,7.451,7.451,0,0,1,1-3.789,7.376,7.376,0,0,1,2.741-2.739A7.368,7.368,0,0,1,24.019-14.727Zm-.029,2.676a4.509,4.509,0,0,0-3.353,1.387,4.829,4.829,0,0,0-1.359,3.525,4.594,4.594,0,0,0,1.711,3.77,4.69,4.69,0,0,0,3.05,1.084,4.454,4.454,0,0,0,3.314-1.406,4.778,4.778,0,0,0,1.369-3.467,4.8,4.8,0,0,0-1.378-3.472A4.5,4.5,0,0,0,23.989-12.051Z" transform="translate(205 34)"/></g></svg>