<svg xmlns="http://www.w3.org/2000/svg" width="94.511" height="87.358" viewBox="0 0 94.511 87.358"><defs><style>.a{fill:#fff;}</style></defs><g transform="translate(-63.322 -203.618)"><path class="a" d="M482.407,310.906l.393,4.129-3.128-.929,2.492-3.266Z" transform="translate(-332.563 -85.644)"/><path class="a" d="M157.47,241.817a9.757,9.757,0,0,0-2.686-9.892,4.9,4.9,0,0,1-1.439-2.242c-.706-3.187-1.745-6.333-1.316-9.7a35.189,35.189,0,0,0,.03-4.351,2.1,2.1,0,0,1,.27,0c.57.068,1.182.216,1.414-.548a1.066,1.066,0,0,0-.742-1.353,20.4,20.4,0,0,0-3.683-1.543,66.762,66.762,0,0,1-9.96-2.75,14.893,14.893,0,0,0-1.457-.376c-2.637-.747-5.3-1.408-7.9-2.274a45.177,45.177,0,0,0-11.221-2.631c-2.309-.156-4.618-.354-6.93-.4-5.965-.127-11.93-.4-17.874.513a34.476,34.476,0,0,0-15.829,6.219c-1.932,1.445-3.955,2.767-5.927,4.159a15.819,15.819,0,0,0-6.813,10.838c-.32,2.1-.788,4.12-1.305,6.165a51.184,51.184,0,0,0-.583,5.467c-.741,5.331.753,10.311,2.492,15.2,2.208,6.206,5.721,11.8,8.693,17.651A19.89,19.89,0,0,0,79.489,276a38.807,38.807,0,0,0,10.863,6.42c4.765,1.944,9.7,3.489,14.586,5.115,3.11,1.034,6.253,1.984,9.423,2.812a18.736,18.736,0,0,0,4.854.627c2.543-.024,5.086-.294,7.622-.534a5.838,5.838,0,0,0,1.641-.632c1.124-.488,2.218-1.054,3.365-1.476,1.756-.646,3.551-1.185,5.32-1.8q1.9-.654,3.766-1.377c2.335-.91,4.745-1.68,6.971-2.808,4.143-2.1,6.849-5.31,7-10.22.113-3.684.238-7.369.422-11.05a11.2,11.2,0,0,0-.954-5.482,5.408,5.408,0,0,1-.025-4.462A82.77,82.77,0,0,0,157.47,241.817ZM149.6,225.2l.242.066.393,4.129-3.128-.929Zm-6.172-9.811-4.318,3.309a5.384,5.384,0,0,0,5.484,2c2.012-.525,2.078-2.216,2.229-4.028a3.672,3.672,0,0,1,1.662,3.2,8.865,8.865,0,0,1-3.084,6.647,5.371,5.371,0,0,1-2.651,1.022,59.873,59.873,0,0,1-6.712.589,27.155,27.155,0,0,1-5.7-.364,4.231,4.231,0,0,1-2.567-7.1C131.325,216.277,136.515,213.55,143.43,215.385ZM90.811,264.01c.309-3.441-1.123-5.994-3.73-8.1a33.928,33.928,0,0,1-3.38-3.3c-.7-.744-1.263-1.608-1.888-2.419l.266-.374a6.657,6.657,0,0,1,1.736.882c2.219,2.14,4.328,4.393,6.56,6.519a5.6,5.6,0,0,1,1.829,4.089c.013.436.074.873.046,1.306a4.583,4.583,0,0,0,2.057,4.234c2.593,1.842,5.226,3.625,7.842,5.434,1.9,1.312,3.8,2.622,5.687,3.945a3.579,3.579,0,0,1,.52.559l-.167.274c-2.166-1.165-4.428-2.184-6.474-3.53-3.245-2.135-6.354-4.48-9.5-6.758A3.057,3.057,0,0,1,90.811,264.01Zm28.821,4.949a12.514,12.514,0,0,1-3.032-1.518,25.7,25.7,0,0,0-10.368-4.846,7.791,7.791,0,0,1-1.044-.356,4.064,4.064,0,0,1-.48-.317c2.757-.21,5.182-.28,7.56.926a43.507,43.507,0,0,1,9.488,6.53A11.457,11.457,0,0,1,119.632,268.959Zm-.21-4.482c-2.127-.87-4.313-1.621-6.366-2.64a18.8,18.8,0,0,0-8.8-2.09c-.462.008-.926-.059-1.65-.11,1.71-1.091,3.436-1.021,5.119-1.456l-7.789-1.241.051-.3c5.912-1.742,14.959,1.571,19.555,7.559Zm-12.982-34.8A11.377,11.377,0,0,1,98.1,231.91a22.377,22.377,0,0,1-8.215-2.173c-2.942-1.575-3.778-3.944-2.46-7.011a8.019,8.019,0,0,1,1.381-2.2,10.007,10.007,0,0,1,7.048-3.633c.87-.043,1.739-.125,2.608-.19a18.423,18.423,0,0,1,6.4,1.178,5.248,5.248,0,0,1,.912.417C109.284,220.388,109.7,227.241,106.439,229.675Zm15.924,16.342c-4.461-.035-8.923-.094-13.384-.054a5.467,5.467,0,0,1-4.149-1.7l18.5.8C123.538,245.835,123.1,246.022,122.364,246.016Zm-5.371-6.047c-2.268.2-4.54.361-6.809.621,4.347,1.141,8.715.725,13.127.207-1.356.907-2.585,2.044-4.351,2.118a41.748,41.748,0,0,1-13.012-1.668,1.469,1.469,0,0,1-.825-.949,9.293,9.293,0,0,1-.037-1.973c6.226.742,12.3-.233,18.4-.589A12.614,12.614,0,0,1,116.993,239.97Zm-30.877,30.3a5.863,5.863,0,0,1-3.167-4.748A7.434,7.434,0,0,1,86.117,270.269Zm2.4,2.294a20.942,20.942,0,0,1,11.238,5.04C95.571,276.9,91.52,275.891,88.518,272.563Zm63.427-22.109a8.779,8.779,0,0,0-.213,5.528c.137.483.219.986.389,1.456,1.517,4.186,1.268,8.536.991,12.835a12.234,12.234,0,0,1-9.081,11.087,20.462,20.462,0,0,1-12.369-.023c-4.155-1.356-6.339-4.128-6.6-8.49a18.67,18.67,0,0,1,1.515-8.923c1.143-2.561,2.519-5.062,2.6-7.97.032-1.138.005-2.278.005-3.352a16.169,16.169,0,0,0-1.166-6.84,4.841,4.841,0,0,1,.066-3.523,22.623,22.623,0,0,1,5.626-9.166c2.454-2.278,5.191-3.864,8.737-3.6,4.142.306,7.863,1.583,10.6,4.8,2.363,2.771,2.216,6.081,1.268,9.353C153.644,245.933,152.766,248.187,151.945,250.454Z"/><path class="a" d="M389.957,383.592c.513-2.725.846-5.5,1.582-8.164a36.558,36.558,0,0,0,1.2-11.741,32.972,32.972,0,0,1,.316-6.605,11.221,11.221,0,0,1,4.031-6.894,10.026,10.026,0,0,1,12.046-.478,4.2,4.2,0,0,1,1.422,1.518,54.991,54.991,0,0,1,2.326,5.987,7.629,7.629,0,0,1-.832,5.832c-.642,1.253-1.254,2.521-1.889,3.777a10.818,10.818,0,0,0-.272,9.635c2.081,4.621.929,8.712-1.59,12.637-1.418,2.21-3.208,3.959-6.09,4.32a12.349,12.349,0,0,1-9.414-2.253,6.322,6.322,0,0,1-2.361-4.513c-.122-1-.175-2-.259-3Zm18.2-.886.369-.263a12.344,12.344,0,0,0-.168-2.141,40.481,40.481,0,0,0-1.278-4.231,11.357,11.357,0,0,1,.59-9.619c.848-1.634,1.576-3.331,2.335-5.01a3.853,3.853,0,0,0,.038-3.024h-15.5c.129,5.862.844,11.657-.577,17.609C399.847,375.834,404.766,377.651,408.16,382.706Zm-15.677.1h13.655c-2.948-4.524-7.153-5.752-11.987-5.536a.936.936,0,0,0-.687.546C393.1,379.475,392.8,381.146,392.483,382.809Zm1.661,6.245c1.985,3.046,9.258,3.419,11,.774a36.218,36.218,0,0,1-5.207-1.064A7.84,7.84,0,0,0,394.144,389.054Zm5.076-36.744,9.339,1.1c.171-1.443-.775-2.515-2.883-3.186C402.352,349.167,400.612,349.743,399.22,352.311Zm5.44,31.457a4.878,4.878,0,0,0,1.557,3.843L408,383.768Zm-1.353-26.586-.944-4.088-2.984,3.654Zm-11.051,27.362,2.781,3.615.78-3.615Zm9.081.032c.448,3.623.3,3.646,1.73,4.034v-4.139Zm-2.132,2.4V383.8h-1.858l.291,3.1Zm-.767-30.634v-2.611a4.908,4.908,0,0,0-2.831,2.611Zm8.058.016-1-3.048-1.147,3.048Zm1.577.864,2.549-.223-1.39-2.255Z" transform="translate(-260.901 -115.269)"/><path class="a" d="M198.41,308.665c-2.2-.068-3.007-1.181-2.433-3.363.535-2.03.532-2.058,2.63-2.245a7.622,7.622,0,0,1,5.48,1.157c.969.719.965.927.183,1.824A7.432,7.432,0,0,1,198.41,308.665Z" transform="translate(-105.816 -79.376)"/></g></svg>