<svg xmlns="http://www.w3.org/2000/svg" xmlns:xlink="http://www.w3.org/1999/xlink" width="67.558" height="87.65" viewBox="0 0 67.558 87.65"><defs><style>.a{fill:#ffe566;}.b{fill:url(#a);}.c{fill:#fff;opacity:0.7;}</style><linearGradient id="a" x1="8.502" y1="0.5" x2="9.502" y2="0.5" gradientUnits="objectBoundingBox"><stop offset="0" stop-color="#fff582"/><stop offset="1" stop-color="#cf8d00"/></linearGradient></defs><g transform="translate(-1451.753 -182.035)"><path class="a" d="M481.668,89.653l55.5-31.221A3.212,3.212,0,0,1,540,58.257h0l.008,0a3.3,3.3,0,0,1,.557.3l3.9,2.1-2.44,3.448v42.372a6.231,6.231,0,0,1-3.183,5.436l-18.75,10.518-.579,13.687-4.025-2.188-4.676-6.293L488.057,140.4l-3.537,5-4.2-2.27c-.1-.048-.191-.1-.282-.153l0,0h0a3.219,3.219,0,0,1-1.546-2.765V95.085A6.231,6.231,0,0,1,481.668,89.653Z" transform="translate(973.262 124.024)"/><path class="b" d="M486.991,92.545l55.5-31.221a3.255,3.255,0,0,1,4.851,2.837v45.213a6.232,6.232,0,0,1-3.183,5.435l-18.75,10.518-4.6,11.5-4.676-6.294-27.471,15.411a3.255,3.255,0,0,1-4.847-2.839V97.977A6.232,6.232,0,0,1,486.991,92.545Z" transform="translate(971.964 123.319)"/><path class="c" d="M524.793,92.751c-6.689,2.568-11.6,12.13-10.976,21.357s6.559,14.626,13.247,12.058,11.6-12.13,10.975-21.356S531.482,90.184,524.793,92.751Zm4.121,7.841c.449-.874,1.253-1.183,1.8-.69a2.2,2.2,0,0,1,.168,2.477c-.449.874-1.253,1.183-1.8.69A2.2,2.2,0,0,1,528.915,100.592Zm-8.79,3.374c.449-.874,1.253-1.183,1.8-.689a2.2,2.2,0,0,1,.168,2.477c-.449.874-1.253,1.183-1.8.689A2.2,2.2,0,0,1,520.124,103.966Zm12.307,9.119c-.085.238-2.1,5.762-5.663,7.263a.441.441,0,0,1-.042.022l-.052.018-.055.023c-.015.005-.029.007-.045.011-3.582,1.242-6.224-2.494-6.336-2.656a1.117,1.117,0,0,1,.079-1.183c.25-.354.621-.4.828-.1a7.572,7.572,0,0,0,1.318,1.363l2.815,1.147a3.556,3.556,0,0,0,1.285-.223,4.96,4.96,0,0,0,1.246-.748l2.52-3.2a17.588,17.588,0,0,0,1.071-2.281c.157-.439.515-.673.8-.525A.883.883,0,0,1,532.431,113.086Z" transform="translate(964.663 115.711)"/></g></svg>