<svg xmlns="http://www.w3.org/2000/svg" xmlns:xlink="http://www.w3.org/1999/xlink" width="67.557" height="87.649" viewBox="0 0 67.557 87.649"><defs><style>.a{fill:#ffa4ec;}.b{fill:url(#a);}.c{fill:#fff;opacity:0.66;}</style><linearGradient id="a" x1="11.57" y1="0.5" x2="12.57" y2="0.5" gradientUnits="objectBoundingBox"><stop offset="0" stop-color="#ff82f7"/><stop offset="1" stop-color="#cf5757"/></linearGradient></defs><g transform="translate(-1354.296 -156.058)"><path class="a" d="M352.794,55.3l55.5-31.221a3.212,3.212,0,0,1,2.824-.175v0l.008,0a3.334,3.334,0,0,1,.558.3l3.9,2.1-2.439,3.448V72.131a6.233,6.233,0,0,1-3.183,5.435l-18.75,10.518-.578,13.687-4.026-2.188-4.676-6.293-22.752,12.763-3.537,5-4.2-2.27c-.1-.047-.191-.1-.283-.153l0,0h0a3.222,3.222,0,0,1-1.547-2.766V60.734A6.232,6.232,0,0,1,352.794,55.3Z" transform="translate(1004.679 132.398)"/><path class="b" d="M358.118,58.194l55.5-31.22a3.255,3.255,0,0,1,4.85,2.837V75.023a6.232,6.232,0,0,1-3.183,5.436L396.54,90.977l-4.6,11.5-4.676-6.293-27.471,15.41a3.255,3.255,0,0,1-4.847-2.839V63.626A6.233,6.233,0,0,1,358.118,58.194Z" transform="translate(1003.381 131.693)"/><path class="c" d="M410.711,62.5c-.141-4.74-3.254-7.024-6.954-5.1s-6.586,7.326-6.445,12.067c-.141-4.741-3.254-7.024-6.954-5.1s-6.585,7.326-6.445,12.066c.009.312.033.612.067.9,1.1,11.293,14,14.553,14,14.553S408.118,75.921,410.3,66.041A13.07,13.07,0,0,0,410.711,62.5Z" transform="translate(995.563 124.34)"/></g></svg>