<svg xmlns="http://www.w3.org/2000/svg" xmlns:xlink="http://www.w3.org/1999/xlink" width="67.557" height="87.649" viewBox="0 0 67.557 87.649"><defs><style>.a{fill:#66e9ff;}.b{fill:url(#a);}.c{fill:#fff;stroke:#fff;stroke-linecap:round;stroke-miterlimit:10;stroke-width:4px;}</style><linearGradient id="a" y1="0.5" x2="1" y2="0.5" gradientUnits="objectBoundingBox"><stop offset="0" stop-color="#8286ff"/><stop offset="1" stop-color="#1c00cf"/></linearGradient></defs><path class="a" d="M347.71,152.863l-55.5-31.221a3.212,3.212,0,0,0-2.824-.175v0l-.008,0a3.326,3.326,0,0,0-.557.3l-3.9,2.1,2.439,3.448v42.372a6.231,6.231,0,0,0,3.183,5.435l18.75,10.518.579,13.687,4.026-2.188,4.676-6.293,22.752,12.763,3.537,5,4.2-2.27c.1-.048.191-.1.282-.153l0,0h0a3.221,3.221,0,0,0,1.546-2.766V158.294A6.232,6.232,0,0,0,347.71,152.863Z" transform="translate(-283.33 -121.22)"/><path class="b" d="M343.173,155.754l-55.5-31.221a3.255,3.255,0,0,0-4.851,2.837v45.213A6.234,6.234,0,0,0,286,178.019l18.75,10.517,4.6,11.5,4.676-6.293,27.47,15.41a3.255,3.255,0,0,0,4.848-2.839V161.186A6.233,6.233,0,0,0,343.173,155.754Z" transform="translate(-282.818 -121.925)"/><line class="c" x2="43.469" y2="23.975" transform="translate(10.032 18.664)"/><line class="c" x2="43.469" y2="23.975" transform="translate(10.326 27.079)"/><line class="c" x2="19.491" y2="10.75" transform="translate(10.326 34.271)"/></svg>