<svg xmlns="http://www.w3.org/2000/svg" width="161.645" height="129.316" viewBox="0 0 161.645 129.316"><defs><style>.a{fill:#fff;}</style></defs><path class="a" d="M153.562,0H40.411a8.082,8.082,0,0,0-8.082,8.082V32.329H72.74V16.164h48.493V96.987h32.329a8.082,8.082,0,0,0,8.082-8.082V8.082A8.082,8.082,0,0,0,153.562,0ZM58.6,26.015a2.273,2.273,0,0,1-2.273,2.273H48.746a2.273,2.273,0,0,1-2.273-2.273V18.438a2.273,2.273,0,0,1,2.273-2.273h7.577A2.273,2.273,0,0,1,58.6,18.438Zm88.9,52.534a2.273,2.273,0,0,1-2.273,2.273H137.65a2.273,2.273,0,0,1-2.273-2.273V70.972A2.273,2.273,0,0,1,137.65,68.7h7.577a2.273,2.273,0,0,1,2.273,2.273Zm0-26.267a2.273,2.273,0,0,1-2.273,2.273H137.65a2.273,2.273,0,0,1-2.273-2.273V44.7a2.273,2.273,0,0,1,2.273-2.273h7.577A2.273,2.273,0,0,1,147.5,44.7Zm0-26.267a2.273,2.273,0,0,1-2.273,2.273H137.65a2.273,2.273,0,0,1-2.273-2.273V18.438a2.273,2.273,0,0,1,2.273-2.273h7.577a2.273,2.273,0,0,1,2.273,2.273Zm-42.432,14.4H8.082A8.082,8.082,0,0,0,0,48.493v72.74a8.082,8.082,0,0,0,8.082,8.082h96.987a8.082,8.082,0,0,0,8.082-8.082V48.493A8.082,8.082,0,0,0,105.069,40.411ZM24.247,56.576a8.082,8.082,0,1,1-8.082,8.082,8.082,8.082,0,0,1,8.082-8.082Zm72.74,56.576H16.164v-8.082L32.329,88.9l8.082,8.082L72.74,64.658,96.987,88.9Z"/></svg>