<svg xmlns="http://www.w3.org/2000/svg" xmlns:xlink="http://www.w3.org/1999/xlink" width="119.38" height="154.885" viewBox="0 0 119.38 154.885"><defs><style>.a{fill:#7065ff;}.b{fill:url(#a);}.c{fill:#fff;}</style><linearGradient id="a" y1="0.5" x2="1" y2="0.5" gradientUnits="objectBoundingBox"><stop offset="0" stop-color="#b482ff"/><stop offset="1" stop-color="#4b00cf"/></linearGradient></defs><g transform="translate(-1220.472 -264.729)"><path class="a" d="M287.324,223.278l-98.081-55.171a5.679,5.679,0,0,0-4.99-.309l0,0-.014.008a5.891,5.891,0,0,0-.985.531l-6.891,3.712,4.31,6.094v74.876a11.013,11.013,0,0,0,5.625,9.6l33.133,18.587,1.022,24.185,7.115-3.865,8.263-11.121,40.205,22.554,6.249,8.835,7.417-4.012c.17-.083.338-.171.5-.27l.007,0h0a5.688,5.688,0,0,0,2.732-4.887V232.877A11.013,11.013,0,0,0,287.324,223.278Z" transform="translate(1046.915 97.366)"/><path class="b" d="M279.306,228.388l-98.082-55.171a5.752,5.752,0,0,0-8.572,5.014v79.9a11.013,11.013,0,0,0,5.625,9.6l33.133,18.587,8.135,20.32,8.263-11.121,48.544,27.231a5.752,5.752,0,0,0,8.566-5.016V237.987A11.014,11.014,0,0,0,279.306,228.388Z" transform="translate(1047.819 96.121)"/><g transform="translate(1233.909 304.268)"><path class="c" d="M229.59,241.607l-5.634,4.211q-4.878-10.62-11.547-14.09-5.63-2.93-9.8.415t-4.627,11.187a31.671,31.671,0,0,0,1.14,10.589,28.377,28.377,0,0,0,4.44,9.166,19.959,19.959,0,0,0,6.795,6.026,10.734,10.734,0,0,0,6.048,1.406,12.713,12.713,0,0,0,6.283-3.069l4.638,9.993q-4.7,3.642-8.7,3.91a17.2,17.2,0,0,1-8.973-2.316q-9.157-4.765-14.52-15.878a47.371,47.371,0,0,1-4.624-23.735q.478-8.168,3.506-13.135a13.091,13.091,0,0,1,8.207-6.249q5.179-1.284,10.893,1.691a30.479,30.479,0,0,1,9.191,7.725A48.22,48.22,0,0,1,229.59,241.607Z" transform="translate(-190.421 -219.649)"/><path class="c" d="M269.067,250.816q8.335,4.339,13.843,15.852a47.471,47.471,0,0,1,4.8,23.58q-.7,11.956-7.1,17.155t-14.845.805q-8.844-4.6-14.2-16.151a47.963,47.963,0,0,1-4.67-23.243,28.048,28.048,0,0,1,3.568-12.988,13.558,13.558,0,0,1,8.1-6.513A14.16,14.16,0,0,1,269.067,250.816Zm-.675,10.131q-5.455-2.837-9.478.5t-4.5,11.47a29.757,29.757,0,0,0,3.84,16.765q3.393,6.014,8.1,8.462,5.319,2.768,9.373-.631t4.514-11.233a30.955,30.955,0,0,0-3-15.16Q273.79,263.757,268.393,260.947Z" transform="translate(-204.17 -226.773)"/></g></g></svg>