<svg xmlns="http://www.w3.org/2000/svg" xmlns:xlink="http://www.w3.org/1999/xlink" width="67.558" height="87.65" viewBox="0 0 67.558 87.65"><defs><style>.a{fill:#66c1ff;}.b{fill:url(#a);}.c{fill:#fff;stroke:#fff;stroke-linecap:round;stroke-miterlimit:10;stroke-width:4px;}</style><linearGradient id="a" y1="0.5" x2="1" y2="0.5" gradientUnits="objectBoundingBox"><stop offset="0" stop-color="#82b2ff"/><stop offset="1" stop-color="#0037cf"/></linearGradient></defs><g transform="translate(-1196.08 -218.4)"><path class="a" d="M205.29,137.742l-55.5-31.221a3.212,3.212,0,0,0-2.824-.175h0l-.008,0a3.3,3.3,0,0,0-.557.3l-3.9,2.1,2.44,3.448v42.372a6.232,6.232,0,0,0,3.183,5.436l18.75,10.518.579,13.687,4.025-2.188,4.676-6.293L198.9,188.494l3.536,5,4.2-2.27c.1-.048.191-.1.282-.153l0,0h0a3.219,3.219,0,0,0,1.546-2.765V143.174A6.231,6.231,0,0,0,205.29,137.742Z" transform="translate(1055.171 112.301)"/><path class="b" d="M200.753,140.634l-55.5-31.221a3.255,3.255,0,0,0-4.851,2.837v45.213a6.23,6.23,0,0,0,3.183,5.435l18.75,10.518,4.6,11.5,4.676-6.293,27.471,15.41a3.255,3.255,0,0,0,4.847-2.839V146.066A6.233,6.233,0,0,0,200.753,140.634Z" transform="translate(1055.682 111.596)"/><g transform="translate(1204.027 236.201)"><line class="c" x2="43.469" y2="23.975"/><line class="c" x2="43.469" y2="23.975" transform="translate(0.294 8.415)"/><line class="c" x2="19.491" y2="10.75" transform="translate(15.633 24.066)"/></g></g></svg>