<svg xmlns="http://www.w3.org/2000/svg" xmlns:xlink="http://www.w3.org/1999/xlink" width="119.381" height="154.885" viewBox="0 0 119.381 154.885"><defs><style>.a{fill:#7065ff;}.b{fill:url(#a);}.c{fill:#fff;}</style><linearGradient id="a" x1="5.386" y1="0.5" x2="6.386" y2="0.5" gradientUnits="objectBoundingBox"><stop offset="0" stop-color="#b482ff"/><stop offset="1" stop-color="#4b00cf"/></linearGradient></defs><g transform="translate(-1392.062 -233.518)"><path class="a" d="M405.171,182.007l98.082-55.171a5.675,5.675,0,0,1,4.989-.31l0,0,.014.008a5.779,5.779,0,0,1,.985.531l6.892,3.712-4.31,6.094v74.875a11.012,11.012,0,0,1-5.625,9.6l-33.133,18.587-1.022,24.185-7.114-3.865-8.263-11.121L416.462,271.69l-6.249,8.836-7.417-4.012c-.17-.083-.337-.17-.5-.27l-.007,0h0a5.689,5.689,0,0,1-2.733-4.888V191.6A11.012,11.012,0,0,1,405.171,182.007Z" transform="translate(992.504 107.427)"/><path class="b" d="M414.579,187.117l98.081-55.171a5.752,5.752,0,0,1,8.573,5.013v79.9a11.014,11.014,0,0,1-5.625,9.605l-33.133,18.586-8.136,20.32-8.263-11.121-48.544,27.232a5.752,5.752,0,0,1-8.566-5.017V196.716A11.012,11.012,0,0,1,414.579,187.117Z" transform="translate(990.211 106.182)"/><path class="c" d="M431.707,237.2l4.247-2.293,5.877,17.533,4.787-23.291,4.245-2.292,4.656,27.173-4.214,2.275-2.97-17.145-4.35,21.1-3.841,2.074-5.336-15.867-2,19.828-4.249,2.294Z" transform="translate(985.434 82.861)"/><path class="c" d="M467.741,219.455l12.5-6.748.152,5.447-8.172,4.413.147,5.289,8.172-4.413.149,5.348-8.172,4.413.215,7.695,8.172-4.413.153,5.467-12.5,6.749Z" transform="translate(975.882 86.312)"/><path class="c" d="M491.564,204.886l4.247-2.293,5.877,17.533,4.787-23.291,4.245-2.291,4.656,27.172-4.214,2.275-2.97-17.144-4.35,21.1L500,230.018l-5.336-15.867-2,19.827-4.249,2.294Z" transform="translate(970.842 90.74)"/><path class="c" d="M527.6,187.136l12.5-6.748.152,5.448-8.172,4.413.147,5.288,8.172-4.412.149,5.348-8.172,4.413.214,7.694,8.172-4.412.152,5.467-12.5,6.749Z" transform="translate(961.29 94.191)"/></g></svg>