<svg xmlns="http://www.w3.org/2000/svg" xmlns:xlink="http://www.w3.org/1999/xlink" width="89.368" height="189.873" viewBox="0 0 89.368 189.873"><defs><style>.a{fill:#4b00cf;}.b{fill:#af85ff;}.c{fill:#ffc3c3;}.d{fill:#fff;}.e{stroke:#fff;stroke-miterlimit:10;stroke-width:4px;fill:url(#a);}.f{fill:#7342d1;}.g{fill:url(#b);}</style><linearGradient id="a" y1="0.501" x2="1" y2="0.501" gradientUnits="objectBoundingBox"><stop offset="0" stop-color="#b482ff"/><stop offset="1" stop-color="#4b00cf"/></linearGradient><linearGradient id="b" x1="0" y1="0.5" x2="1" y2="0.5" xlink:href="#a"/></defs><path class="a" d="M167.614,283.5s17.589,34.45,17.533,35.794-2.576,5.938-7.954,2.409-14.621-26.44-14.621-26.44" transform="translate(-117.409 -241.907)"/><path class="b" d="M116.993,262.4s-12.209,36.7-11.951,38.024,3.44,5.483,8.226,1.185,10.478-28.337,10.478-28.337" transform="translate(-103.383 -236.763)"/><path class="c" d="M147.67,264.359s0-5.153.28-5.153,9.467.724,9.691-3.5.281-5.4.281-5.4h1.1a.626.626,0,0,0,.608-.777l-1.152-4.657-.672-7.115s-3.809-.056-4.061,0,1.009,2.954,1.149,4.257c.168,1.568-.337,9.8-.337,9.8s-.224.784-.812.056.756-5.042-2.381-4.93-3.557,3.641-1.863,5.826c-3.123,1.12-6.372,3.358-10.573,2.939v2.923Z" transform="translate(-111.645 -230.748)"/><path class="c" d="M155.7,235.5s.057-7.086-12.3-7-18.794,9.575-6.582,24.953" transform="translate(-109.537 -228.499)"/><path class="d" d="M151.489,237.614s-23.222-4.261-21.71,1.872c.168,11.6,6.9,15.837,6.9,15.837s7.619-.054,10.573-2.939c0,0-3.239-5.674,1.863-5.826,2.829-.084,1.82,2.885,2.381,4.93,0,0,.743,1.751.923-1.993S153.306,239.739,151.489,237.614Z" transform="translate(-109.397 -230.37)"/><path class="e" d="M163.894,245.817c1.065-.252,1.261-.14,1.261-.14" transform="translate(-117.731 -232.681)"/><path class="c" d="M146.34,457.375l-2.1,8.067s4.537,4.621,10.167-.588l-3.193-9.243" transform="translate(-112.939 -283.865)"/><path class="f" d="M143.969,467.49s7.123,3.535,9.559-2.346c8.949-.547,14.682-1.9,15.4-.553s1.47,3.739-2.983,5.881-9.537,2.563-11.428,3.277-4.411,2.479-7.688,1.932-3.537-.714-3.68-1.848A46.56,46.56,0,0,1,143.969,467.49Z" transform="translate(-112.669 -285.913)"/><path class="f" d="M122.811,451.75a9.079,9.079,0,0,0-.672,2.689c-.042,1.218-.924,5.8,2.353,5.5s4.285-.924,4.747-2.689a7.454,7.454,0,0,1,2.479-4.339c1.723-1.668,10.8-5.786,8.234-9.945S126,447.633,126,447.633" transform="translate(-107.518 -280.511)"/><path class="c" d="M123.548,445.973l-.42,6.386s4.664,3.066,6.218-.756a13.074,13.074,0,0,0,.63-7.436" transform="translate(-107.793 -281.075)"/><path class="g" d="M154.128,348.948V389.28l-6.05,41.844s-2.856,5.21-8.4,0c0-8.906,2.521-36.971,2.521-36.971l-1.345-34.617-5.377-3.361.84,28.9L130.1,422.889s-6.05,4.537-7.9-1.68,2.353-38.651,2.353-38.651l-2.822-40.836Z" transform="translate(-107.452 -256.101)"/><path class="g" d="M119.9,261.874c2.883-3.061,34.645,14.053,36.492,16.265,1.942,2.325-5.042,9.41-4.2,25.544s2.857,29.576,2.857,29.576-3.025,3.865-7.562,4.033-13.108-3.361-21.846-8.57-8.57-5.546-9.075-7.73,4.034-11.428,3.529-18.821S114.35,271.62,119.9,261.874Z" transform="translate(-106.182 -236.546)"/><path class="c" d="M103.438,335.953s-.547,9.159-.588,11.008,7.352,6.68,7.394-1.428.168-12.31.168-12.31" transform="translate(-102.849 -254.029)"/><path class="b" d="M105.027,309.444c-1.082,1.919-2.366,19.092-2.154,20.512,1.022.959,4.626,3.9,9.221-.4,1.044-8.153,2.927-22.433,2.927-22.433S107.92,305.433,105.027,309.444Z" transform="translate(-102.849 -247.579)"/><path class="c" d="M201.709,309.642l5.66-4.818s.11-1.68,1.006-2.072,1.233.616,1.233.616a3.1,3.1,0,0,0,2.464-.281c1.289-.728,3.361-2.576,3.921-2.129s.224,1.4.224,1.4l-3.137,1.849s3.753,2.632,2.353,3.528-9.522,7.226-9.522,7.226" transform="translate(-126.95 -246.147)"/><path class="a" d="M185.066,329.642c2.152-.47,15.82-10.947,16.739-12.051.035-1.4-.169-6.05-6.442-6.61-6.778,4.65-18.686,12.754-18.686,12.754S180.148,330.155,185.066,329.642Z" transform="translate(-120.847 -248.607)"/><path class="f" d="M134.144,267.027c-1.825-1.472.073-3.493,1.176-3.749s14.728,8.867,14.728,8.867a25.132,25.132,0,0,1-3.883-.07C143.958,271.872,135.969,268.5,134.144,267.027Z" transform="translate(-110.293 -236.976)"/></svg>