<svg xmlns="http://www.w3.org/2000/svg" width="215.775" height="158.683" viewBox="0 0 215.775 158.683"><defs><style>.a,.b,.c{fill:#7065ff;}.a{opacity:0.38;}.b{opacity:0.23;}.c{opacity:0.08;}</style></defs><g transform="translate(-1107.319 -419.614)"><path class="a" d="M119.241,375.754,26.968,429.691a7.965,7.965,0,0,0,.006,13.757l87.424,51a27.631,27.631,0,0,0,27.543.173l92.818-52.587a7.966,7.966,0,0,0,.112-13.8l-89.155-52.444A26.17,26.17,0,0,0,119.241,375.754Z" transform="translate(1084.297 47.436)"/><path class="b" d="M126.884,425.767l-77.09,45.062a6.654,6.654,0,0,0,.005,11.493l73.039,42.606a23.084,23.084,0,0,0,23.011.144l77.544-43.934a6.655,6.655,0,0,0,.094-11.526L149,425.8A21.864,21.864,0,0,0,126.884,425.767Z" transform="translate(1078.574 35.1)"/><path class="c" d="M133.325,468.382,69.031,505.963a5.55,5.55,0,0,0,0,9.586l60.915,35.534a19.255,19.255,0,0,0,19.192.121l64.673-36.642a5.55,5.55,0,0,0,.078-9.613l-62.122-36.542A18.233,18.233,0,0,0,133.325,468.382Z" transform="translate(1073.751 24.591)"/></g></svg>