<svg xmlns="http://www.w3.org/2000/svg" width="215.775" height="158.683" viewBox="0 0 215.775 158.683"><defs><style>.a,.b,.c{fill:#b066ff;}.a{opacity:0.38;}.b{opacity:0.23;}.c{opacity:0.08;}</style></defs><g transform="translate(-1408.844 -387.923)"><path class="a" d="M517.969,333.847,425.7,387.784a7.965,7.965,0,0,0,.006,13.757l87.424,51a27.631,27.631,0,0,0,27.543.174l92.817-52.588a7.965,7.965,0,0,0,.113-13.8l-89.155-52.444A26.17,26.17,0,0,0,517.969,333.847Z" transform="translate(987.094 57.652)"/><path class="b" d="M525.612,383.859l-77.09,45.062a6.655,6.655,0,0,0,0,11.494l73.039,42.605a23.087,23.087,0,0,0,23.012.145l77.544-43.935a6.655,6.655,0,0,0,.094-11.526L547.73,383.89A21.864,21.864,0,0,0,525.612,383.859Z" transform="translate(981.371 45.316)"/><path class="c" d="M532.053,426.475l-64.294,37.582a5.549,5.549,0,0,0,0,9.585l60.915,35.534a19.251,19.251,0,0,0,19.192.121l64.673-36.642a5.551,5.551,0,0,0,.079-9.613L550.5,426.5A18.235,18.235,0,0,0,532.053,426.475Z" transform="translate(976.548 34.807)"/></g></svg>