<svg xmlns="http://www.w3.org/2000/svg" xmlns:xlink="http://www.w3.org/1999/xlink" width="89.368" height="189.873" viewBox="0 0 89.368 189.873"><defs><style>.a{fill:#bad7ff;}.b{fill:#d7e9ff;}.c{fill:#ffc3c3;}.d{fill:#01000f;}.e{fill:none;stroke:#01000f;stroke-miterlimit:10;stroke-width:2px;}.f{fill:url(#a);}.g{fill:url(#b);}</style><linearGradient id="a" x1="22.052" y1="0.5" x2="23.052" y2="0.5" gradientUnits="objectBoundingBox"><stop offset="0" stop-color="#6b42a8"/><stop offset="1" stop-color="#2b0080"/></linearGradient><linearGradient id="b" x1="17.767" y1="0.5" x2="18.767" y2="0.5" gradientUnits="objectBoundingBox"><stop offset="0" stop-color="#deedff"/><stop offset="0.548" stop-color="#bcd8ff"/><stop offset="1" stop-color="#bad7ff"/></linearGradient></defs><path class="a" d="M542.58,239.655s-17.589,34.45-17.533,35.794,2.576,5.938,7.955,2.409,14.62-26.44,14.62-26.44" transform="translate(-503.417 -198.062)"/><path class="b" d="M594.448,218.552s12.208,36.7,11.951,38.024-3.44,5.483-8.226,1.185S587.7,229.424,587.7,229.424" transform="translate(-518.69 -192.918)"/><path class="c" d="M563.121,220.514s0-5.153-.28-5.153-9.467.724-9.691-3.5-.28-5.4-.28-5.4h-1.1a.626.626,0,0,1-.608-.777l1.152-4.657.672-7.115s3.809-.056,4.061,0-1.009,2.954-1.148,4.258c-.169,1.568.336,9.8.336,9.8s.224.784.812.056-.756-5.042,2.38-4.93,3.557,3.641,1.863,5.826c3.123,1.12,6.372,3.358,10.573,2.939v2.922Z" transform="translate(-509.778 -186.903)"/><path class="d" d="M553.577,191.657s-.056-7.086,12.3-7,18.794,9.575,6.582,24.954" transform="translate(-510.372 -184.654)"/><path class="d" d="M558.568,193.71s21.584-4.693,21.71,1.872c-.168,11.6-6.9,15.837-6.9,15.837s-7.618-.054-10.573-2.939c0,0,3.239-5.674-1.863-5.826-2.828-.084-1.82,2.885-2.38,4.93,0,0-.743,1.751-.923-1.993S556.751,195.835,558.568,193.71Z" transform="translate(-511.292 -186.466)"/><path class="e" d="M553.653,202a4.777,4.777,0,0,0-1.261-.07" transform="translate(-510.083 -188.862)"/><path class="c" d="M567.854,413.53l2.1,8.067s-4.537,4.621-10.167-.588l3.193-9.243" transform="translate(-511.886 -240.02)"/><path class="b" d="M565.012,423.645s-7.123,3.535-9.559-2.346c-8.949-.547-14.681-1.9-15.4-.553s-1.47,3.739,2.983,5.881,9.537,2.563,11.427,3.277,4.411,2.479,7.688,1.932,3.537-.714,3.681-1.848A46.661,46.661,0,0,0,565.012,423.645Z" transform="translate(-506.944 -242.068)"/><path class="b" d="M588.727,407.906a9.071,9.071,0,0,1,.672,2.688c.042,1.218.924,5.8-2.353,5.5s-4.285-.924-4.748-2.689a7.454,7.454,0,0,0-2.479-4.339c-1.723-1.668-10.8-5.786-8.234-9.945s13.949,4.664,13.949,4.664" transform="translate(-514.652 -236.666)"/><path class="c" d="M591.628,402.128l.42,6.386s-4.663,3.066-6.218-.756a13.083,13.083,0,0,1-.63-7.436" transform="translate(-518.015 -237.23)"/><path class="f" d="M552.9,305.1v40.331l6.05,41.844s2.857,5.21,8.4,0c0-8.906-2.52-36.971-2.52-36.971l1.344-34.617,5.378-3.361-.841,28.9,6.218,37.811s6.05,4.537,7.9-1.68-2.353-38.651-2.353-38.651l2.823-40.836Z" transform="translate(-510.207 -212.256)"/><path class="g" d="M584.614,218.029c-2.882-3.061-34.645,14.053-36.492,16.265-1.942,2.325,5.042,9.41,4.2,25.544s-2.857,29.577-2.857,29.577,3.025,3.865,7.562,4.033,13.108-3.361,21.846-8.57,8.57-5.546,9.075-7.73-4.033-11.428-3.529-18.822S590.159,227.775,584.614,218.029Z" transform="translate(-508.959 -192.701)"/><path class="c" d="M611.6,292.108s.546,9.159.588,11.008-7.352,6.68-7.394-1.429-.169-12.31-.169-12.31" transform="translate(-522.816 -210.184)"/><path class="b" d="M608.52,265.6c1.082,1.919,2.366,19.092,2.154,20.512-1.022.959-4.626,3.9-9.221-.4-1.044-8.153-2.928-22.433-2.928-22.433S605.627,261.588,608.52,265.6Z" transform="translate(-521.33 -203.734)"/><path class="c" d="M511.053,265.8l-5.66-4.818s-.11-1.68-1.006-2.072-1.232.616-1.232.616a3.1,3.1,0,0,1-2.465-.281c-1.288-.728-3.361-2.576-3.921-2.129s-.224,1.4-.224,1.4l3.137,1.849s-3.753,2.632-2.353,3.529,9.523,7.226,9.523,7.226" transform="translate(-496.444 -202.301)"/><path class="a" d="M524.3,285.8c-2.152-.471-15.819-10.948-16.738-12.052-.036-1.4.168-6.05,6.441-6.61,6.778,4.65,18.687,12.754,18.687,12.754S529.222,286.31,524.3,285.8Z" transform="translate(-499.155 -204.762)"/><path class="a" d="M577.955,223.182c1.825-1.472-.073-3.493-1.176-3.749s-14.728,8.867-14.728,8.867a25.135,25.135,0,0,0,3.883-.07C568.142,228.027,576.13,224.655,577.955,223.182Z" transform="translate(-512.438 -193.131)"/></svg>