<svg xmlns="http://www.w3.org/2000/svg" width="24" height="24" viewBox="0 0 28 24"><defs><style>.a{fill:#6026eb;}</style></defs><path class="a" d="M14.085,8.092,4.822,15.72v8.233a.8.8,0,0,0,.8.8l5.63-.015a.8.8,0,0,0,.8-.8V19.131a.8.8,0,0,1,.8-.8h3.215a.8.8,0,0,1,.8.8v4.8a.8.8,0,0,0,.8.806l5.628.016a.8.8,0,0,0,.8-.8V15.714l-9.26-7.623A.612.612,0,0,0,14.085,8.092Zm14.63,5.185-4.2-3.462V2.856a.6.6,0,0,0-.6-.6H21.1a.6.6,0,0,0-.6.6V6.5L16,2.8a2.411,2.411,0,0,0-3.064,0L.218,13.276a.6.6,0,0,0-.08.849l1.281,1.557a.6.6,0,0,0,.85.082L14.085,6.032a.612.612,0,0,1,.769,0L26.67,15.765a.6.6,0,0,0,.849-.08L28.8,14.127a.6.6,0,0,0-.085-.851Z" transform="translate(0.001 -2.254)"/></svg>