<svg xmlns="http://www.w3.org/2000/svg" width="236.75" height="57" viewBox="0 0 236.75 57"><defs><style>.a{fill:#6026eb;}.b{fill:#fff;}</style></defs><g transform="translate(-199 -13.847)"><path class="a" d="M6.827-32.322h5.994L20.314-9.778l7.561-22.544h5.991L39.287,0H33.338L29.872-20.413,23.005,0H17.583L10.778-20.413,7.229,0h-6Zm37.382,0H61.853V-26.3H50.317v5.845H61.853v5.911H50.317v8.5H61.853V0H44.209Zm26.514,0h5.994L84.21-9.778l7.561-22.544h5.991L103.184,0H97.234L93.768-20.413,86.9,0H81.48L74.674-20.413,71.125,0h-6Zm37.382,0H125.75V-26.3H114.214v5.845H125.75v5.911H114.214v8.5H125.75V0H108.105Z" transform="translate(310 58.847)"/><rect class="a" width="102" height="57" rx="28.5" transform="translate(199 13.847)"/><path class="b" d="M33.4-26.642l-4.3,4.1Q24.7-27.18,19.216-27.18a10.616,10.616,0,0,0-7.8,3.167A10.6,10.6,0,0,0,8.24-16.2a11.542,11.542,0,0,0,1.405,5.741,10.071,10.071,0,0,0,3.974,3.937A11.536,11.536,0,0,0,19.326-5.1a11.763,11.763,0,0,0,4.9-1A17.548,17.548,0,0,0,29.1-9.738l4.171,4.352A22.9,22.9,0,0,1,26.5-.539,18.471,18.471,0,0,1,19.226.813,16.743,16.743,0,0,1,6.888-3.966a16.545,16.545,0,0,1-4.8-12.25,16.766,16.766,0,0,1,2.186-8.591,16.257,16.257,0,0,1,6.262-6.042,17.66,17.66,0,0,1,8.778-2.285,18.354,18.354,0,0,1,7.7,1.689A18.417,18.417,0,0,1,33.4-26.642Zm20.643-6.493a16.051,16.051,0,0,1,11.8,4.966,16.525,16.525,0,0,1,4.936,12.107A16.341,16.341,0,0,1,65.9-4.087,16.042,16.042,0,0,1,54.086.813,16.037,16.037,0,0,1,41.993-4.219a16.7,16.7,0,0,1-4.815-11.953A16.765,16.765,0,0,1,39.42-24.7a16.6,16.6,0,0,1,6.167-6.163A16.578,16.578,0,0,1,54.042-33.135Zm-.066,6.021a10.145,10.145,0,0,0-7.545,3.12,10.864,10.864,0,0,0-3.057,7.932,10.337,10.337,0,0,0,3.849,8.481,10.553,10.553,0,0,0,6.862,2.439,10.021,10.021,0,0,0,7.456-3.164,10.751,10.751,0,0,0,3.079-7.8,10.8,10.8,0,0,0-3.1-7.811A10.116,10.116,0,0,0,53.976-27.114Z" transform="translate(213 58.847)"/></g></svg>