<svg xmlns="http://www.w3.org/2000/svg" width="52.908" height="52.908" viewBox="0 0 52.908 52.908"><defs><style>.a{fill:#004ba1;}</style></defs><path class="a" d="M47.239,2.25H5.669A5.669,5.669,0,0,0,0,7.919v41.57a5.669,5.669,0,0,0,5.669,5.669H21.878V37.17h-7.44V28.7h7.44V22.251c0-7.34,4.37-11.394,11.062-11.394a45.074,45.074,0,0,1,6.557.572v7.2H35.8c-3.639,0-4.773,2.258-4.773,4.574v5.5h8.123l-1.3,8.466H31.03V55.158H47.239a5.669,5.669,0,0,0,5.669-5.669V7.919A5.669,5.669,0,0,0,47.239,2.25Z" transform="translate(0 -2.25)"/></svg>