<svg xmlns="http://www.w3.org/2000/svg" width="52.991" height="52.991" viewBox="0 0 52.991 52.991"><defs><style>.a{fill:#36bf31;}</style></defs><path class="a" d="M32.185,22.619v8.41a.374.374,0,0,1-.379.379H30.458a.391.391,0,0,1-.308-.154l-3.856-5.2V31.04a.374.374,0,0,1-.379.379H24.568a.374.374,0,0,1-.379-.379V22.63a.374.374,0,0,1,.379-.379H25.9a.357.357,0,0,1,.308.166l3.856,5.2V22.63a.374.374,0,0,1,.379-.379h1.348a.374.374,0,0,1,.39.367Zm-9.7-.379H21.137a.374.374,0,0,0-.379.379v8.41a.374.374,0,0,0,.379.379h1.348a.374.374,0,0,0,.379-.379v-8.41A.381.381,0,0,0,22.486,22.24Zm-3.253,7.05H15.554V22.619a.374.374,0,0,0-.379-.379H13.827a.374.374,0,0,0-.379.379v8.41a.348.348,0,0,0,.106.26.4.4,0,0,0,.26.106h5.406a.374.374,0,0,0,.379-.379V29.668a.379.379,0,0,0-.367-.379Zm20.049-7.05H33.877a.381.381,0,0,0-.379.379v8.41a.381.381,0,0,0,.379.379h5.406a.374.374,0,0,0,.379-.379V29.68a.374.374,0,0,0-.379-.379H35.6V27.882h3.679a.374.374,0,0,0,.379-.379v-1.36a.374.374,0,0,0-.379-.379H35.6V24.346h3.679a.374.374,0,0,0,.379-.379V22.619A.4.4,0,0,0,39.282,22.24ZM52.991,11.914V45.66a9.634,9.634,0,0,1-9.664,9.581H9.581A9.642,9.642,0,0,1,0,45.578V11.831A9.642,9.642,0,0,1,9.664,2.25H43.41A9.634,9.634,0,0,1,52.991,11.914Zm-7.286,14.5c0-8.635-8.658-15.661-19.292-15.661S7.121,17.781,7.121,26.415c0,7.736,6.86,14.218,16.134,15.448,2.259.485,2,1.313,1.49,4.353-.083.485-.39,1.9,1.668,1.041s11.107-6.541,15.164-11.2C44.368,32.98,45.705,29.869,45.705,26.415Z" transform="translate(0 -2.25)"/></svg>