<svg xmlns="http://www.w3.org/2000/svg" width="53" height="53" viewBox="0 0 53 53"><defs><style>.a{fill:#1a76ff;}</style></defs><path class="a" d="M-4673-2432h-33a10.011,10.011,0,0,1-10-10v-33a10.011,10.011,0,0,1,10-10h33a10.011,10.011,0,0,1,10,10v33a9.934,9.934,0,0,1-2.929,7.071A9.934,9.934,0,0,1-4673-2432Zm-16.548-41.9c-8.755,0-15.358,6.391-15.358,14.865a14.515,14.515,0,0,0,4.824,11c.422.38.428.632.464,2.275l0,.086c.007.337.017.757.031,1.237a1.23,1.23,0,0,0,.574,1,1.227,1.227,0,0,0,.656.189,1.224,1.224,0,0,0,.492-.1c.62-.273,1.134-.5,1.556-.691l0,0a6.8,6.8,0,0,1,2-.759,1.12,1.12,0,0,1,.305.05,16.744,16.744,0,0,0,4.445.6c7.415,0,15.294-5.215,15.294-14.88C-4674.257-2467.506-4680.831-2473.9-4689.549-2473.9Zm-8.6,20.336a.759.759,0,0,1-.651-.395.7.7,0,0,1,.032-.728l4.512-7.142a2.31,2.31,0,0,1,1.532-1.034,2.349,2.349,0,0,1,.417-.038,2.323,2.323,0,0,1,1.382.459l3.587,2.686a.926.926,0,0,0,.557.185.923.923,0,0,0,.556-.185l4.845-3.67a.724.724,0,0,1,.44-.156.754.754,0,0,1,.647.393.7.7,0,0,1-.032.729l-4.51,7.142a2.32,2.32,0,0,1-1.532,1.034,2.312,2.312,0,0,1-.417.038,2.332,2.332,0,0,1-1.384-.459l-3.588-2.685a.918.918,0,0,0-.556-.186.922.922,0,0,0-.557.186l-4.842,3.673A.728.728,0,0,1-4698.151-2453.561Z" transform="translate(4716 2485)"/></svg>