<svg xmlns="http://www.w3.org/2000/svg" width="52" height="52" viewBox="0 0 52 52"><defs><style>.a{fill:#f8554b;}</style></defs><path class="a" d="M-4673-2432.5h-33a9.511,9.511,0,0,1-9.5-9.5v-33a9.511,9.511,0,0,1,9.5-9.5h33a9.511,9.511,0,0,1,9.5,9.5v33A9.511,9.511,0,0,1-4673-2432.5Zm-26.434-13.785a.448.448,0,0,1,.281.1,15.134,15.134,0,0,0,9.384,3.277c.132,0,.269,0,.407-.006A15,15,0,0,0-4681-2445.7a.445.445,0,0,1,.263-.085.444.444,0,0,1,.308.123l.244.233a1.358,1.358,0,0,0,.937.372,1.353,1.353,0,0,0,.832-.283l-.006-.006-.315-.3a.393.393,0,0,1-.005-.543.393.393,0,0,1,.287-.125.393.393,0,0,1,.256.095l.337.315,1.891-1.988a1.37,1.37,0,0,0-.05-1.923l-.4-.375a.447.447,0,0,1-.081-.541,15.126,15.126,0,0,0,1.654-10.006,7.553,7.553,0,0,0,1.6-1.938c.242-.524.308-.938.182-1.135a.314.314,0,0,0-.286-.135,1.134,1.134,0,0,0-.38.083,4.161,4.161,0,0,1-1.43.341,2.22,2.22,0,0,1-.5-.057,15.173,15.173,0,0,0-13.276-9.6c-.241-.012-.479-.019-.71-.02h-.12a15.034,15.034,0,0,0-11.7,5.56c-.135.162-.274.337-.425.536l.006-.005a4.1,4.1,0,0,1,1.076-.667l.087-.034a2.616,2.616,0,0,1,.916-.175,2.262,2.262,0,0,1,.434.042c2.156.433,3.284,3.921,2.514,7.775-.713,3.564-2.8,6.252-4.862,6.252a2.3,2.3,0,0,1-.448-.044c-1.468-.293-2.509-2.013-2.718-4.488v.07c0,.2,0,.4,0,.6v.11l0,.088c.009.232.021.449.037.665.007.1.018.2.028.3a15.015,15.015,0,0,0,1.441,5.165.45.45,0,0,1-.117.545l-.416.339a1.352,1.352,0,0,0-.436,1.454.038.038,0,0,0,.006.018l0,.008a1.389,1.389,0,0,0,.089.213l.074-.059.346-.26a.385.385,0,0,1,.236-.08.391.391,0,0,1,.313.155.392.392,0,0,1-.076.549l-.367.279-.056.042,1.765,2.172a1.364,1.364,0,0,0,1.057.5,1.367,1.367,0,0,0,.856-.3l.387-.315A.448.448,0,0,1-4699.433-2446.285Zm-6.069-15.1v0a3.3,3.3,0,0,0,1.167,1.233,8.16,8.16,0,0,0,.025.9c.159,1.916.964,3.247,2.1,3.473a1.776,1.776,0,0,0,.348.034c1.592,0,3.208-2.078,3.759-4.834a8.117,8.117,0,0,0-.12-4,2.658,2.658,0,0,0-1.822-2.012,1.76,1.76,0,0,0-.343-.034,2.528,2.528,0,0,0-1.6.683,6.5,6.5,0,0,0-1.709,2.6l-.014,0a.136.136,0,0,1-.031-.008,1.016,1.016,0,0,1-.269-.131.661.661,0,0,0-.2-.1,1.841,1.841,0,0,0,.329-2.007,1.845,1.845,0,0,0-1.683-1.09h-.036a1.838,1.838,0,0,0-1.536.878,1.838,1.838,0,0,0-.086,1.768,1.845,1.845,0,0,0-1.695,1.309,1.849,1.849,0,0,0,.684,2.03,1.839,1.839,0,0,0,1.083.35,1.838,1.838,0,0,0,1.06-.335,1.829,1.829,0,0,0,.591-.7Zm3.251,3.656a1.179,1.179,0,0,1-.226-.022c-.712-.142-1.232-.965-1.357-2.149a2.687,2.687,0,0,0,.839.182c.048,0,.095,0,.14,0a1.8,1.8,0,0,0,1.57-.773,2.483,2.483,0,0,0,.094-1.922,1.393,1.393,0,0,0-.655-.957,1.193,1.193,0,0,0-.415-.077,2,2,0,0,0-.475.073h-.006a2.582,2.582,0,0,1-.43.076,3.784,3.784,0,0,1,.835-1.08,1.648,1.648,0,0,1,1.028-.443,1.327,1.327,0,0,1,.239.025,1.39,1.39,0,0,1,.872.636,4.58,4.58,0,0,1,.394,3.276C-4700.162-2459.084-4701.214-2457.73-4702.251-2457.73Z" transform="translate(4715.5 2484.5)"/></svg>