<svg xmlns="http://www.w3.org/2000/svg" width="52.991" height="52.991" viewBox="0 0 52.991 52.991"><defs><style>.a{fill:#1ab9ff;}</style></defs><path class="a" d="M47.314,2.25H5.678A5.679,5.679,0,0,0,0,7.928V49.564a5.679,5.679,0,0,0,5.678,5.678H47.314a5.679,5.679,0,0,0,5.678-5.678V7.928A5.679,5.679,0,0,0,47.314,2.25ZM41.53,21.034c.024.331.024.674.024,1.005,0,10.255-7.807,22.072-22.072,22.072A21.97,21.97,0,0,1,7.57,40.633a16.344,16.344,0,0,0,1.869.095,15.554,15.554,0,0,0,9.628-3.312,7.768,7.768,0,0,1-7.251-5.382,8.361,8.361,0,0,0,3.5-.142,7.758,7.758,0,0,1-6.21-7.618V24.18a7.753,7.753,0,0,0,3.5.982A7.741,7.741,0,0,1,9.155,18.7a7.661,7.661,0,0,1,1.053-3.915A22.027,22.027,0,0,0,26.2,22.9a7.774,7.774,0,0,1,13.236-7.085,15.2,15.2,0,0,0,4.921-1.869,7.738,7.738,0,0,1-3.407,4.27,15.438,15.438,0,0,0,4.471-1.207A16.329,16.329,0,0,1,41.53,21.034Z" transform="translate(0 -2.25)"/></svg>